# xmcd
#
# Track frame offsets:
#	150
#	450
#	28433
#	50692
#	73485
#	97495
#	119280
#	141092
#	163972
#	186172
#	209032
#	229991
#	254353
#	276275
#	299064
#
# Disc length: 4418 seconds
#
# Revision: 0
# Processed by: cddbd v1.5.1PL2 Copyright (c) Steve Scherf et al.
# Submitted via: dBpowerAMP V4.0
#
DISCID=0411400f
DTITLE=Camilla Läckberg - Stenhuggaren - CD-BOK 12/13
DYEAR=2005
DGENRE=CD-BOK
TTITLE0=12.01
TTITLE1=12.02
TTITLE2=12.03
TTITLE3=12.04
TTITLE4=12.05
TTITLE5=12.06
TTITLE6=12.07
TTITLE7=12.08
TTITLE8=12.09
TTITLE9=12.10
TTITLE10=12.11
TTITLE11=12.12
TTITLE12=12.13
TTITLE13=12.14
TTITLE14=12.15
EXTD=
EXTT0=
EXTT1=
EXTT2=
EXTT3=
EXTT4=
EXTT5=
EXTT6=
EXTT7=
EXTT8=
EXTT9=
EXTT10=
EXTT11=
EXTT12=
EXTT13=
EXTT14=
PLAYORDER=
